<?xml version="1.0" encoding="UTF-8"?>
<svg version="1.1" xmlns="http://www.w3.org/2000/svg" width="450" height="450">
<path d="M0 0 C1.04803802 -0.00637985 2.09607605 -0.0127597 3.1758728 -0.01933289 C4.31231232 -0.02044571 5.44875183 -0.02155853 6.61962891 -0.02270508 C8.36573959 -0.02769768 8.36573959 -0.02769768 10.14712524 -0.03279114 C12.61354171 -0.03786156 15.07996505 -0.04019943 17.54638672 -0.04003906 C21.3235199 -0.04222322 25.10036004 -0.06037159 28.87744141 -0.0793457 C31.27066957 -0.08228003 33.66389913 -0.08426456 36.05712891 -0.08520508 C37.18951996 -0.09239059 38.32191101 -0.09957611 39.48861694 -0.10697937 C40.54295929 -0.10390274 41.59730164 -0.10082611 42.68359375 -0.09765625 C43.6102182 -0.09908127 44.53684265 -0.10050629 45.49154663 -0.10197449 C48.13104132 0.16120184 49.75567806 0.70110607 51.97119141 2.14526367 C52.59619141 4.20776367 52.59619141 4.20776367 52.97119141 6.14526367 C53.96119141 6.64026367 53.96119141 6.64026367 54.97119141 7.14526367 C55.02177105 14.65662775 55.05687398 22.16794816 55.08105469 29.67944336 C55.09113179 32.2364262 55.10479366 34.79339747 55.12207031 37.3503418 C55.14624358 41.01899059 55.15765726 44.68748746 55.16650391 48.35620117 C55.17682648 49.5051889 55.18714905 50.65417664 55.19778442 51.83798218 C55.19793549 52.89893097 55.19808655 53.95987976 55.19824219 55.05297852 C55.20268341 55.9900766 55.20712463 56.92717468 55.21170044 57.89266968 C54.97119141 60.14526367 54.97119141 60.14526367 52.97119141 62.14526367 C51.85744141 63.47557617 51.85744141 63.47557617 50.72119141 64.83276367 C47.97119141 67.14526367 47.97119141 67.14526367 44.90869141 67.20776367 C40.99810683 65.79329691 38.82984989 63.86258063 36.97119141 60.14526367 C36.81677932 58.04151371 36.72126502 55.93331249 36.65478516 53.82495117 C36.59194336 51.93969727 36.59194336 51.93969727 36.52783203 50.01635742 C36.48851562 48.69764648 36.44919922 47.37893555 36.40869141 46.02026367 C36.36549629 44.68040616 36.32188168 43.34056211 36.27783203 42.00073242 C36.17148159 38.71568553 36.06945332 35.43056086 35.97119141 32.14526367 C33.28525165 33.48823355 31.87715631 35.61443361 29.97033691 37.87945557 C25.57618483 42.85973608 20.78026233 47.47870671 16.08056641 52.16870117 C14.92793429 53.32200788 13.77545057 54.47546291 12.62310791 55.62905884 C10.22089895 58.03273452 7.8169094 60.43461093 5.41162109 62.83520508 C2.32576519 65.91533204 -0.75553611 68.99997037 -3.83554459 72.08594322 C-6.20828074 74.46228535 -8.58338399 76.83625004 -10.95922089 79.20949173 C-12.09707832 80.34668166 -13.23419221 81.48461605 -14.37055206 82.62330246 C-15.95247712 84.20775809 -17.53755628 85.78898829 -19.12353516 87.36938477 C-20.4753891 88.72004532 -20.4753891 88.72004532 -21.85455322 90.09799194 C-24.02880859 92.14526367 -24.02880859 92.14526367 -26.02880859 93.14526367 C-27.40312217 94.77605879 -28.7768073 96.40738732 -30.14746094 98.04125977 C-32.23434252 100.37512241 -34.44877846 102.49570894 -36.73583984 104.63354492 C-37.9859082 105.81787109 -37.9859082 105.81787109 -39.26123047 107.02612305 C-40.98585085 108.65152227 -42.72566219 110.26094788 -44.47998047 111.85424805 C-48.73859123 115.94025728 -51.49486479 118.72535927 -52.10302734 124.75073242 C-52.12029509 126.2156833 -52.11137083 127.68253925 -52.02880859 129.14526367 C-52.68880859 129.14526367 -53.34880859 129.14526367 -54.02880859 129.14526367 C-53.78130859 129.68151367 -53.53380859 130.21776367 -53.27880859 130.77026367 C-53.02880859 133.14526367 -53.02880859 133.14526367 -54.52880859 136.14526367 C-57.5381952 139.7565276 -59.82464476 141.08006038 -64.02880859 143.14526367 C-64.83318359 143.57838867 -65.63755859 144.01151367 -66.46630859 144.45776367 C-71.52022385 145.81369216 -76.16748392 144.82632379 -80.71630859 142.45776367 C-84.90312693 139.81345736 -88.2057052 136.5512582 -89.84130859 131.77026367 C-90.02880859 129.14526367 -90.02880859 129.14526367 -89.93505859 127.23120117 C-89.70686867 122.49826531 -89.70686867 122.49826531 -91.96630859 118.33276367 C-92.64693359 117.61088867 -93.32755859 116.88901367 -94.02880859 116.14526367 C-94.35880859 115.15526367 -94.68880859 114.16526367 -95.02880859 113.14526367 C-97.02897326 111.93644271 -97.02897326 111.93644271 -99.02880859 111.14526367 C-99.02880859 110.48526367 -99.02880859 109.82526367 -99.02880859 109.14526367 C-99.90279297 108.76241211 -99.90279297 108.76241211 -100.79443359 108.37182617 C-103.24269082 107.0278528 -104.84624107 105.52716071 -106.77880859 103.52026367 C-107.39240234 102.88862305 -108.00599609 102.25698242 -108.63818359 101.60620117 C-109.09708984 101.1240918 -109.55599609 100.64198242 -110.02880859 100.14526367 C-110.58786392 100.48899521 -111.14691925 100.83272675 -111.72291565 101.18687439 C-114.53060864 102.35382487 -115.95223576 101.95906349 -118.9230957 101.47949219 C-124.60849021 101.40144248 -127.61060479 103.66056143 -131.57006836 107.45361328 C-134.00297652 109.85595168 -136.36301363 112.32127614 -138.72021484 114.79760742 C-139.99757359 116.09804916 -141.27747886 117.39599402 -142.55979919 118.69154358 C-145.91607756 122.09530726 -149.23842361 125.53034126 -152.55413818 128.97357178 C-155.94163346 132.4808275 -159.35775653 135.95992889 -162.77294922 139.44018555 C-166.60591389 143.34670166 -170.4360615 147.25544158 -174.24134827 151.18894958 C-174.81856628 151.78422455 -175.3957843 152.37949951 -175.99049377 152.99281311 C-177.06965053 154.1064569 -178.14674438 155.22210477 -179.22140503 156.34008789 C-182.34305425 159.55720019 -183.83431005 160.98749971 -188.34130859 161.58276367 C-192.02880859 161.14526367 -192.02880859 161.14526367 -195.02880859 158.58276367 C-197.02880859 155.14526367 -197.02880859 155.14526367 -196.90380859 151.39526367 C-196.02880859 148.14526367 -196.02880859 148.14526367 -195.02880859 146.14526367 C-194.36880859 146.14526367 -193.70880859 146.14526367 -193.02880859 146.14526367 C-193.02880859 145.48526367 -193.02880859 144.82526367 -193.02880859 144.14526367 C-191.36665592 142.80630735 -189.69917252 141.47396225 -188.02880859 140.14526367 C-187.10068359 138.96963867 -187.10068359 138.96963867 -186.15380859 137.77026367 C-184.35278023 135.54546393 -182.70906691 133.95441419 -180.52880859 132.14526367 C-178.39644686 130.37431918 -176.77539804 128.82850048 -175.02880859 126.64526367 C-172.83992993 123.90916534 -170.44202065 121.85600815 -167.76318359 119.61791992 C-164.59075692 116.92421529 -161.74113052 114.07865102 -159.21630859 110.77026367 C-156.74507427 107.80478249 -153.99574006 105.48496296 -151.06005859 102.99291992 C-148.51142852 100.6746468 -146.38239487 98.13376019 -144.25537109 95.43041992 C-143.85060547 95.00631836 -143.44583984 94.5822168 -143.02880859 94.14526367 C-142.36880859 94.14526367 -141.70880859 94.14526367 -141.02880859 94.14526367 C-141.02880859 93.48526367 -141.02880859 92.82526367 -141.02880859 92.14526367 C-140.36880859 92.14526367 -139.70880859 92.14526367 -139.02880859 92.14526367 C-139.02880859 91.48526367 -139.02880859 90.82526367 -139.02880859 90.14526367 C-138.36880859 89.81526367 -137.70880859 89.48526367 -137.02880859 89.14526367 C-137.08101562 88.05858398 -137.08101562 88.05858398 -137.13427734 86.94995117 C-137.32948308 79.97831772 -136.92782134 75.43081145 -132.15380859 70.02026367 C-131.45255859 69.40151367 -130.75130859 68.78276367 -130.02880859 68.14526367 C-129.24505859 67.42338867 -128.46130859 66.70151367 -127.65380859 65.95776367 C-124.60552742 63.8529981 -122.70138363 63.43906967 -119.02880859 63.14526367 C-117.35818359 62.99057617 -117.35818359 62.99057617 -115.65380859 62.83276367 C-111.22005258 63.21498402 -107.64123843 64.51083313 -104.02880859 67.14526367 C-103.69880859 68.13526367 -103.36880859 69.12526367 -103.02880859 70.14526367 C-102.36880859 70.14526367 -101.70880859 70.14526367 -101.02880859 70.14526367 C-98.38631375 74.28134256 -97.89516313 77.22162946 -97.77880859 82.14526367 C-97.58276145 86.36202061 -97.58276145 86.36202061 -95.66162109 89.97338867 C-93.91309997 91.42376356 -93.91309997 91.42376356 -91.99755859 92.71557617 C-89.75674831 94.34283126 -88.17670671 96.14745145 -86.40380859 98.27026367 C-81.26196989 104.34984187 -81.26196989 104.34984187 -74.02880859 107.14526367 C-74.02880859 106.48526367 -74.02880859 105.82526367 -74.02880859 105.14526367 C-69.41409216 105.0170771 -69.41409216 105.0170771 -67.0588007 105.80069923 C-65.01917931 106.3671381 -65.01917931 106.3671381 -63.39950466 105.21899986 C-62.87131665 104.72459215 -62.34312864 104.23018444 -61.79893494 103.72079468 C-61.19181608 103.15991528 -60.58469723 102.59903587 -59.95918083 102.02116013 C-59.32215799 101.4021143 -58.68513515 100.78306847 -58.02880859 100.14526367 C-57.38857821 99.5290276 -56.74834782 98.91279152 -56.08871651 98.27788162 C-53.94256813 96.18237908 -51.82262462 94.06286276 -49.70678711 91.93676758 C-48.90597214 91.13609863 -48.10515717 90.33542969 -47.28007507 89.51049805 C-44.65357555 86.88330606 -42.03062843 84.25259785 -39.40771484 81.62182617 C-37.57947799 79.79172277 -35.75101913 77.96184112 -33.92234802 76.13217163 C-29.61414699 71.82055239 -25.30817846 67.50671542 -21.00330251 63.19177663 C-16.09833319 58.27559321 -11.19049188 53.36228111 -6.28241837 48.44919705 C3.80529596 38.35105681 13.88943474 28.24935175 23.97119141 18.14526367 C23.21499512 18.1557373 22.45879883 18.16621094 21.6796875 18.17700195 C18.23522295 18.21871784 14.79081171 18.2446395 11.34619141 18.27026367 C10.15638672 18.28702148 8.96658203 18.3037793 7.74072266 18.32104492 C6.01015625 18.33071289 6.01015625 18.33071289 4.24462891 18.34057617 C2.65787354 18.35628662 2.65787354 18.35628662 1.0390625 18.37231445 C-3.6862512 18.02259762 -7.00691961 17.1147481 -10.46630859 13.83276367 C-12.02880859 11.14526367 -12.02880859 11.14526367 -12.02880859 8.64526367 C-9.5145489 2.35961445 -6.55288532 0.02700257 0 0 Z M-119.02880859 79.14526367 C-119.35880859 80.79526367 -119.68880859 82.44526367 -120.02880859 84.14526367 C-117.55380859 84.64026367 -117.55380859 84.64026367 -115.02880859 85.14526367 C-115.02880859 83.49526367 -115.02880859 81.84526367 -115.02880859 80.14526367 C-116.34880859 79.81526367 -117.66880859 79.48526367 -119.02880859 79.14526367 Z M-71.02880859 121.14526367 C-73.0687805 122.50850111 -73.0687805 122.50850111 -75.02880859 124.14526367 C-75.24412267 126.24558046 -75.24412267 126.24558046 -73.65380859 127.77026367 C-72.12912538 129.36057775 -72.12912538 129.36057775 -70.02880859 129.14526367 C-69.36880859 127.49526367 -68.70880859 125.84526367 -68.02880859 124.14526367 C-69.01880859 123.15526367 -70.00880859 122.16526367 -71.02880859 121.14526367 Z " fill="#F0FAFE" transform="translate(300.02880859375,118.854736328125)"/>
<path d="M0 0 C2.31 0.33 4.62 0.66 7 1 C7 1.99 7 2.98 7 4 C7.99 4 8.98 4 10 4 C11.22291379 7.66874137 11.11656735 11.02204639 11.08229065 14.83964539 C11.07906152 15.64666848 11.07583239 16.45369156 11.07250541 17.2851699 C11.06040957 19.99834766 11.041041 22.71142525 11.02172852 25.42456055 C11.01158793 27.36586284 11.00189402 29.30716752 10.99261475 31.24847412 C10.96611173 36.52708641 10.93333669 41.80564356 10.89946485 47.08421302 C10.86514362 52.59752972 10.83654997 58.11087599 10.80735779 63.6242218 C10.75118324 74.06831645 10.68983178 84.51237408 10.62663645 94.95642835 C10.5549514 106.84500453 10.48901314 118.7336104 10.42356598 130.6222223 C10.28878764 155.08152004 10.14676518 179.54077146 10 204 C10.83507608 203.99772168 10.83507608 203.99772168 11.68702239 203.99539733 C44.67159125 203.90591428 77.65612971 203.8372686 110.64079271 203.79573868 C114.59996553 203.79073577 118.5591381 203.78555848 122.51831055 203.78027344 C123.70062667 203.77869957 123.70062667 203.77869957 124.90682796 203.77709392 C137.67487809 203.75968152 150.44285629 203.72813926 163.21086373 203.69138882 C176.30885712 203.65400257 189.4068128 203.63176906 202.50485736 203.62364602 C210.58919821 203.61815342 218.67333577 203.60079629 226.75761405 203.56833413 C232.95327508 203.54472068 239.14878063 203.5421743 245.34448051 203.54756927 C247.88862105 203.54646617 250.43276907 203.53847441 252.97686386 203.5231781 C256.44361773 203.50335161 259.90949337 203.50803482 263.37626648 203.51898193 C264.89523569 203.50150488 264.89523569 203.50150488 266.44489115 203.48367476 C270.7790129 203.52080777 273.2955605 203.57490574 277.0663271 205.85037613 C279.51697667 208.57471219 280.48944414 210.35317241 281 214 C279.05660583 217.74283322 277.51449462 219.65700359 274 222 C271.87511116 222.25069833 271.87511116 222.25069833 269.36287022 222.25168228 C268.40491348 222.25689778 267.44695674 222.26211327 266.45997101 222.26748681 C264.87799177 222.26079465 264.87799177 222.26079465 263.26405334 222.25396729 C261.58610181 222.25864726 261.58610181 222.25864726 259.87425226 222.26342177 C256.10630094 222.27143231 252.33850931 222.26506616 248.57055664 222.25878906 C245.8771263 222.26149758 243.18370716 222.26498508 240.49028015 222.26940918 C233.922013 222.2783158 227.35379149 222.27637545 220.78552253 222.2705839 C215.44809536 222.26607201 210.11068101 222.26545245 204.77325249 222.26763153 C204.01436487 222.267938 203.25547725 222.26824446 202.47359304 222.26856022 C200.93204256 222.26919965 199.39049209 222.26984808 197.84894162 222.2705054 C183.38367874 222.27621251 168.91844118 222.26964504 154.45318245 222.25890467 C142.0362398 222.24997061 129.61933455 222.25151926 117.20239258 222.26074219 C102.79137968 222.27144121 88.380389 222.27566125 73.96937269 222.26951766 C72.43310289 222.26888055 70.89683309 222.26825181 69.36056328 222.26763153 C68.22668568 222.2671687 68.22668568 222.2671687 67.06990146 222.26669653 C61.73823132 222.26496835 56.40657526 222.26788738 51.0749073 222.27259064 C44.57823461 222.27819546 38.08161026 222.27669151 31.58494312 222.26602915 C28.26903362 222.26076676 24.9532216 222.25979881 21.63731003 222.26532745 C18.0457688 222.27076491 14.45445679 222.26397046 10.8629303 222.25396729 C9.81050819 222.25842873 8.75808608 222.26289017 7.67377239 222.26748681 C6.71320791 222.26227132 5.75264342 222.25705582 4.76297092 222.25168228 C3.93376906 222.25135758 3.1045672 222.25103287 2.250238 222.25069833 C-0.26523317 221.97045045 -1.86148935 221.33975861 -4 220 C-6.51809411 215.74024413 -6.2753915 211.23165788 -6.24050903 206.42631531 C-6.24221788 205.56449719 -6.24392673 204.70267907 -6.24568737 203.81474525 C-6.24898058 200.92808857 -6.23798128 198.04166454 -6.22705078 195.1550293 C-6.22648663 193.08535264 -6.2268033 191.01567557 -6.22793579 188.94599915 C-6.22851016 183.32660473 -6.21674222 177.70729551 -6.20278788 172.0879209 C-6.19029452 166.21558548 -6.18911112 160.34324815 -6.18673706 154.47090149 C-6.18051819 143.35043541 -6.16410185 132.23000861 -6.14403808 121.10955983 C-6.12169175 108.44947258 -6.11068883 95.78938346 -6.10064721 83.1292814 C-6.079736 57.08616582 -6.04455209 31.04308511 -6 5 C-5.38125 4.731875 -4.7625 4.46375 -4.125 4.1875 C-1.7004767 3.04443152 -1.7004767 3.04443152 0 0 Z " fill="#F0FAFE" transform="translate(81,119)"/>
<path d="M0 0 C0.33 0 0.66 0 1 0 C1 2.64 1 5.28 1 8 C0.67 8 0.34 8 0 8 C0 5.36 0 2.72 0 0 Z " fill="#FFFFFF" transform="translate(209,240)"/>
<path d="" fill="#FFFFFF" transform="translate(0,0)"/>
<path d="" fill="#FFFFFF" transform="translate(0,0)"/>
<path d="" fill="#FFFFFF" transform="translate(0,0)"/>
<path d="" fill="#FFFFFF" transform="translate(0,0)"/>
<path d="" fill="#FFFFFF" transform="translate(0,0)"/>
<path d="" fill="#FFFFFF" transform="translate(0,0)"/>
<path d="" fill="#FFFFFF" transform="translate(0,0)"/>
<path d="" fill="#FFFFFF" transform="translate(0,0)"/>
<path d="" fill="#FFFFFF" transform="translate(0,0)"/>
<path d="" fill="#FFFFFF" transform="translate(0,0)"/>
</svg>
